<?xml version="1.0" encoding="UTF-8"?>
<!DOCTYPE svg PUBLIC "-//W3C//DTD SVG 1.1//EN" "http://www.w3.org/Graphics/SVG/1.1/DTD/svg11.dtd">
<svg xmlns="http://www.w3.org/2000/svg" version="1.1" width="2000px" height="2000px" style="shape-rendering:geometricPrecision; text-rendering:geometricPrecision; image-rendering:optimizeQuality; fill-rule:evenodd; clip-rule:evenodd" xmlns:xlink="http://www.w3.org/1999/xlink">
<g><path style="opacity:1" fill="#f9f9f9" d="M -0.5,-0.5 C 666.167,-0.5 1332.83,-0.5 1999.5,-0.5C 1999.5,666.167 1999.5,1332.83 1999.5,1999.5C 1332.83,1999.5 666.167,1999.5 -0.5,1999.5C -0.5,1332.83 -0.5,666.167 -0.5,-0.5 Z"/></g>
<g><path style="opacity:1" fill="#2b2b25" d="M 1014.5,966.5 C 1038,1015.5 1062,1064.17 1086.5,1112.5C 1086.56,1113.61 1086.89,1114.61 1087.5,1115.5C 1042,1116.5 996.336,1116.83 950.5,1116.5C 911.942,1035.71 873.608,954.712 835.5,873.5C 802.173,872.5 768.84,872.167 735.5,872.5C 735.5,953.833 735.5,1035.17 735.5,1116.5C 695.5,1116.5 655.5,1116.5 615.5,1116.5C 615.5,902.167 615.5,687.833 615.5,473.5C 699.501,473.333 783.501,473.5 867.5,474C 910.326,474.208 950.993,483.541 989.5,502C 1041.58,530.446 1073.41,573.946 1085,632.5C 1096.27,695.097 1082.6,751.43 1044,801.5C 1028.97,819.081 1011.14,832.915 990.5,843C 979.983,847.495 969.65,852.162 959.5,857C 977.488,893.809 995.821,930.309 1014.5,966.5 Z"/></g>
<g><path style="opacity:1" fill="#f9f9f9" d="M 735.5,574.5 C 779.501,574.333 823.501,574.5 867.5,575C 930.589,579.883 963.256,613.883 965.5,677C 963.562,742.604 929.896,777.937 864.5,783C 821.501,783.5 778.501,783.667 735.5,783.5C 735.5,713.833 735.5,644.167 735.5,574.5 Z"/></g>
<g><path style="opacity:1" fill="#125da2" d="M 1493.5,1382.5 C 1450.51,1384.49 1407.18,1385.16 1363.5,1384.5C 1345.8,1332.57 1327.8,1280.73 1309.5,1229C 1221.5,1228.17 1133.5,1228.33 1045.5,1229.5C 1026.97,1281.09 1008.64,1332.76 990.5,1384.5C 947.505,1385.5 904.505,1385.83 861.5,1385.5C 891.833,1301.5 922.167,1217.5 952.5,1133.5C 1027.67,1133.83 1102.67,1133.5 1177.5,1132.5C 1210.17,1132.83 1242.84,1132.5 1275.5,1131.5C 1275.38,1130.89 1275.04,1130.56 1274.5,1130.5C 1242.89,1037.16 1210.39,944.163 1177,851.5C 1146.53,938.423 1116.36,1025.42 1086.5,1112.5C 1062,1064.17 1038,1015.5 1014.5,966.5C 1045.56,880.819 1076.73,795.152 1108,709.5C 1154.43,708.336 1200.93,708.17 1247.5,709C 1330.19,933.25 1412.19,1157.75 1493.5,1382.5 Z"/></g>
<g><path style="opacity:1" fill="#96968f" d="M 1087.5,1115.5 C 1088.04,1115.56 1088.38,1115.89 1088.5,1116.5C 1042.34,1117.83 996.335,1117.83 950.5,1116.5C 996.336,1116.83 1042,1116.5 1087.5,1115.5 Z"/></g>
<g><path style="opacity:1" fill="#89a8ce" d="M 1274.5,1130.5 C 1275.04,1130.56 1275.38,1130.89 1275.5,1131.5C 1242.84,1132.5 1210.17,1132.83 1177.5,1132.5C 1209.83,1131.83 1242.17,1131.17 1274.5,1130.5 Z"/></g>
<g><path style="opacity:1" fill="#4a82b4" d="M 1493.5,1382.5 C 1494.4,1383.21 1494.74,1384.21 1494.5,1385.5C 1450.66,1385.83 1407,1385.5 1363.5,1384.5C 1407.18,1385.16 1450.51,1384.49 1493.5,1382.5 Z"/></g>
<g><path style="opacity:1" fill="#175ea2" d="M 1281.5,1445.5 C 1314.38,1444.34 1335.88,1459.34 1346,1490.5C 1349.76,1525.41 1334.92,1548.24 1301.5,1559C 1271.73,1562.87 1250.23,1551.37 1237,1524.5C 1227.1,1494.46 1235.27,1470.63 1261.5,1453C 1268.02,1449.78 1274.69,1447.28 1281.5,1445.5 Z"/></g>
<g><path style="opacity:1" fill="#7d7d7d" d="M 659.5,1447.5 C 669.008,1446.18 678.675,1446.18 688.5,1447.5C 688.376,1448.11 688.043,1448.44 687.5,1448.5C 678.348,1447.51 669.015,1447.17 659.5,1447.5 Z"/></g>
<g><path style="opacity:1" fill="#010101" d="M 500.5,1447.5 C 516.503,1447.33 532.503,1447.5 548.5,1448C 562.225,1451.39 571.058,1459.89 575,1473.5C 578.905,1495.2 570.738,1510.04 550.5,1518C 561.167,1531.33 571.833,1544.67 582.5,1558C 572.167,1558.67 561.833,1558.67 551.5,1558C 542.667,1545.17 533.833,1532.33 525,1519.5C 524.5,1532.5 524.333,1545.5 524.5,1558.5C 516.5,1558.5 508.5,1558.5 500.5,1558.5C 500.5,1521.5 500.5,1484.5 500.5,1447.5 Z"/></g>
<g><path style="opacity:1" fill="#040404" d="M 659.5,1447.5 C 669.015,1447.17 678.348,1447.51 687.5,1448.5C 674.553,1467.29 661.386,1485.95 648,1504.5C 647.5,1522.5 647.333,1540.5 647.5,1558.5C 639.167,1558.5 630.833,1558.5 622.5,1558.5C 622.667,1540.16 622.5,1521.83 622,1503.5C 608.833,1485 595.667,1466.5 582.5,1448C 592.167,1447.33 601.833,1447.33 611.5,1448C 619.333,1460.5 627.167,1473 635,1485.5C 643.03,1472.66 651.196,1459.99 659.5,1447.5 Z"/></g>
<g><path style="opacity:1" fill="#020202" d="M 735.5,1447.5 C 742.863,1447.17 750.197,1447.5 757.5,1448.5C 772.74,1484.97 787.406,1521.64 801.5,1558.5C 792.833,1558.5 784.167,1558.5 775.5,1558.5C 773.332,1550.83 770.665,1543.33 767.5,1536C 753.5,1535.33 739.5,1535.33 725.5,1536C 722.335,1543.33 719.668,1550.83 717.5,1558.5C 708.833,1558.5 700.167,1558.5 691.5,1558.5C 705.883,1521.4 720.55,1484.4 735.5,1447.5 Z"/></g>
<g><path style="opacity:1" fill="#5c5c5c" d="M 837.5,1447.5 C 829.5,1447.5 821.5,1447.5 813.5,1447.5C 813.5,1484.5 813.5,1521.5 813.5,1558.5C 812.502,1521.34 812.168,1484 812.5,1446.5C 821.017,1446.17 829.35,1446.51 837.5,1447.5 Z"/></g>
<g><path style="opacity:1" fill="#010101" d="M 837.5,1447.5 C 850.087,1469.67 862.42,1492.01 874.5,1514.5C 874.783,1515.29 875.283,1515.96 876,1516.5C 876.5,1493.5 876.667,1470.5 876.5,1447.5C 884.5,1447.5 892.5,1447.5 900.5,1447.5C 900.5,1484.5 900.5,1521.5 900.5,1558.5C 892.14,1558.83 883.807,1558.5 875.5,1557.5C 863,1535.17 850.5,1512.83 838,1490.5C 837.5,1513.16 837.333,1535.83 837.5,1558.5C 829.5,1558.5 821.5,1558.5 813.5,1558.5C 813.5,1521.5 813.5,1484.5 813.5,1447.5C 821.5,1447.5 829.5,1447.5 837.5,1447.5 Z"/></g>
<g><path style="opacity:1" fill="#555555" d="M 900.5,1447.5 C 892.5,1447.5 884.5,1447.5 876.5,1447.5C 876.667,1470.5 876.5,1493.5 876,1516.5C 875.283,1515.96 874.783,1515.29 874.5,1514.5C 875.497,1492.01 875.831,1469.34 875.5,1446.5C 884.017,1446.17 892.35,1446.51 900.5,1447.5 Z"/></g>
<g><path style="opacity:1" fill="#175ea3" d="M 996.5,1446.5 C 1003.75,1446.19 1010.92,1446.52 1018,1447.5C 1033.41,1484.31 1048.24,1521.31 1062.5,1558.5C 1053.81,1558.83 1045.14,1558.5 1036.5,1557.5C 1033.96,1550.54 1031.62,1543.54 1029.5,1536.5C 1014.82,1536.17 1000.15,1536.5 985.5,1537.5C 982.961,1544.45 980.628,1551.45 978.5,1558.5C 969.833,1558.5 961.167,1558.5 952.5,1558.5C 967.167,1521.17 981.833,1483.83 996.5,1446.5 Z"/></g>
<g><path style="opacity:1" fill="#6393be" d="M 1098.5,1447.5 C 1090.5,1447.5 1082.5,1447.5 1074.5,1447.5C 1074.5,1484.5 1074.5,1521.5 1074.5,1558.5C 1073.5,1521.34 1073.17,1484 1073.5,1446.5C 1082.02,1446.17 1090.35,1446.51 1098.5,1447.5 Z"/></g>
<g><path style="opacity:1" fill="#125da2" d="M 1098.5,1447.5 C 1098.5,1477.17 1098.5,1506.83 1098.5,1536.5C 1111.83,1536.5 1125.17,1536.5 1138.5,1536.5C 1138.5,1543.83 1138.5,1551.17 1138.5,1558.5C 1117.17,1558.5 1095.83,1558.5 1074.5,1558.5C 1074.5,1521.5 1074.5,1484.5 1074.5,1447.5C 1082.5,1447.5 1090.5,1447.5 1098.5,1447.5 Z"/></g>
<g><path style="opacity:1" fill="#165ea2" d="M 1216.5,1491.5 C 1216.5,1498.83 1216.5,1506.17 1216.5,1513.5C 1203.83,1513.5 1191.17,1513.5 1178.5,1513.5C 1178.5,1528.5 1178.5,1543.5 1178.5,1558.5C 1170.5,1558.5 1162.5,1558.5 1154.5,1558.5C 1154.5,1521.17 1154.5,1483.83 1154.5,1446.5C 1175.83,1446.5 1197.17,1446.5 1218.5,1446.5C 1218.5,1454.17 1218.5,1461.83 1218.5,1469.5C 1205.17,1469.5 1191.83,1469.5 1178.5,1469.5C 1178.5,1476.83 1178.5,1484.17 1178.5,1491.5C 1191.17,1491.5 1203.83,1491.5 1216.5,1491.5 Z"/></g>
<g><path style="opacity:1" fill="#6695bf" d="M 1408.5,1447.5 C 1393.5,1447.5 1378.5,1447.5 1363.5,1447.5C 1363.5,1484.5 1363.5,1521.5 1363.5,1558.5C 1362.5,1521.34 1362.17,1484 1362.5,1446.5C 1378.01,1446.17 1393.34,1446.5 1408.5,1447.5 Z"/></g>
<g><path style="opacity:1" fill="#145da2" d="M 1408.5,1447.5 C 1427.79,1451.13 1437.79,1462.8 1438.5,1482.5C 1438.15,1500.05 1429.82,1511.88 1413.5,1518C 1424.02,1531.02 1434.36,1544.19 1444.5,1557.5C 1434.17,1558.83 1423.83,1558.83 1413.5,1557.5C 1405.2,1544.7 1396.7,1532.03 1388,1519.5C 1387.5,1532.5 1387.33,1545.5 1387.5,1558.5C 1379.5,1558.5 1371.5,1558.5 1363.5,1558.5C 1363.5,1521.5 1363.5,1484.5 1363.5,1447.5C 1378.5,1447.5 1393.5,1447.5 1408.5,1447.5 Z"/></g>
<g><path style="opacity:1" fill="#c4d5e7" d="M 1493.5,1447.5 C 1480.17,1447.5 1466.83,1447.5 1453.5,1447.5C 1453.5,1484.5 1453.5,1521.5 1453.5,1558.5C 1452.5,1521.34 1452.17,1484 1452.5,1446.5C 1466.34,1446.17 1480.01,1446.5 1493.5,1447.5 Z"/></g>
<g><path style="opacity:1" fill="#145da2" d="M 1493.5,1447.5 C 1518.73,1451.89 1534.56,1466.56 1541,1491.5C 1544.81,1527.43 1529.31,1549.6 1494.5,1558C 1480.84,1558.5 1467.17,1558.67 1453.5,1558.5C 1453.5,1521.5 1453.5,1484.5 1453.5,1447.5C 1466.83,1447.5 1480.17,1447.5 1493.5,1447.5 Z"/></g>
<g><path style="opacity:1" fill="#c6c6c6" d="M 525.5,1466.5 C 525.5,1477.17 525.5,1487.83 525.5,1498.5C 530.833,1498.5 536.167,1498.5 541.5,1498.5C 536.025,1499.49 530.358,1499.82 524.5,1499.5C 524.172,1488.32 524.505,1477.32 525.5,1466.5 Z"/></g>
<g><path style="opacity:1" fill="#f8f8f8" d="M 525.5,1466.5 C 532.391,1465.9 539.058,1466.73 545.5,1469C 554.772,1478.3 554.772,1487.64 545.5,1497C 544.255,1497.79 542.922,1498.29 541.5,1498.5C 536.167,1498.5 530.833,1498.5 525.5,1498.5C 525.5,1487.83 525.5,1477.17 525.5,1466.5 Z"/></g>
<g><path style="opacity:1" fill="#f6f7f8" d="M 1387.5,1466.5 C 1392.84,1466.33 1398.18,1466.5 1403.5,1467C 1412.84,1470.69 1416.68,1477.52 1415,1487.5C 1413.14,1493.36 1409.31,1497.19 1403.5,1499C 1398.18,1499.5 1392.84,1499.67 1387.5,1499.5C 1387.5,1488.5 1387.5,1477.5 1387.5,1466.5 Z"/></g>
<g><path style="opacity:1" fill="#f8f8f9" d="M 1284.5,1469.5 C 1301.71,1469.19 1313.87,1476.85 1321,1492.5C 1324.83,1510 1319,1523.16 1303.5,1532C 1284.21,1539.13 1269.71,1533.63 1260,1515.5C 1253.71,1492.41 1261.88,1477.07 1284.5,1469.5 Z"/></g>
<g><path style="opacity:1" fill="#f7f8f9" d="M 1477.5,1469.5 C 1505.8,1469.3 1518.63,1483.3 1516,1511.5C 1509.87,1529.99 1497.04,1537.99 1477.5,1535.5C 1477.5,1513.5 1477.5,1491.5 1477.5,1469.5 Z"/></g>
<g><path style="opacity:1" fill="#f3f3f3" d="M 759.5,1514.5 C 750.682,1515.49 741.682,1515.83 732.5,1515.5C 736.579,1502.59 741.246,1489.93 746.5,1477.5C 751.433,1489.63 755.766,1501.97 759.5,1514.5 Z"/></g>
<g><path style="opacity:1" fill="#f4f6f7" d="M 1020.5,1514.5 C 1011.68,1515.49 1002.68,1515.83 993.5,1515.5C 997.579,1502.59 1002.25,1489.93 1007.5,1477.5C 1012.43,1489.63 1016.77,1501.97 1020.5,1514.5 Z"/></g>
<g><path style="opacity:1" fill="#c0d2e3" d="M 1216.5,1491.5 C 1217.49,1498.98 1217.83,1506.65 1217.5,1514.5C 1204.83,1514.5 1192.17,1514.5 1179.5,1514.5C 1179.83,1529.34 1179.5,1544.01 1178.5,1558.5C 1178.5,1543.5 1178.5,1528.5 1178.5,1513.5C 1191.17,1513.5 1203.83,1513.5 1216.5,1513.5C 1216.5,1506.17 1216.5,1498.83 1216.5,1491.5 Z"/></g>
<g><path style="opacity:1" fill="#7d7d7d" d="M 759.5,1514.5 C 760.043,1514.56 760.376,1514.89 760.5,1515.5C 751.008,1516.82 741.675,1516.82 732.5,1515.5C 741.682,1515.83 750.682,1515.49 759.5,1514.5 Z"/></g>
<g><path style="opacity:1" fill="#83a8ce" d="M 1020.5,1514.5 C 1021.04,1514.56 1021.38,1514.89 1021.5,1515.5C 1012.01,1516.82 1002.67,1516.82 993.5,1515.5C 1002.68,1515.83 1011.68,1515.49 1020.5,1514.5 Z"/></g>
</svg>
